<svg id="图层_1" data-name="图层 1" xmlns="http://www.w3.org/2000/svg" viewBox="0 0 1554.86 486.88"><defs><style>.cls-1,.cls-2{fill:#dfe5e8;}.cls-2{font-size:350px;font-family:Pacifico;}</style></defs><path class="cls-1" d="M354.14,940.65c2.77-1.68,5.62-3.21,8.52-4.65,1.55-.77,3.11-1.5,4.68-2.22.93-.41,1.86-.81,2.78-1.23,3.2-1.46-3.37,1.34-.07,0,8.69-3.43,17.44-6.6,26.35-9.42,24.12-7.61,48.77-13.51,73.48-18.84,72.94-15.75,148.32-26.67,220.59-35.81,103.24-13,206.9-22.84,310.65-30.89,126.49-9.82,253.19-16.9,380-22q216.78-8.64,433.78-9.5,28.7-.12,57.38-.12c19.31,0,19.34-30,0-30q-221.79,0-443.49,7.82-194.85,7-389.37,20.88c-106.86,7.82-213.64,17.42-320,30.21-79.23,9.53-158.5,20.4-236.77,36.13-45.28,9.11-93.32,18.36-135.06,39-2.9,1.43-5.76,3-8.52,4.65-16.48,10-1.42,36,15.14,25.9Z" transform="translate(-331.87 -462.35)"/><text class="cls-2" transform="translate(8.81 327.95)">Code Blog</text></svg>