<svg id="图层_1" data-name="图层 1" xmlns="http://www.w3.org/2000/svg" viewBox="0 0 1478.15 504.86"><defs><style>.cls-1{fill:#dfe5e8;}</style></defs><path class="cls-1" d="M356.8,968.9a124.67,124.67,0,0,1,17.89-11.24c3.78-2,7.64-3.87,11.53-5.66,2.13-1,4.27-1.88,6.41-2.83,3-1.36-3.34,1.35.31-.13,1.22-.5,2.44-1,3.67-1.5,22.79-9.15,46.36-16.34,70-22.83,69.52-19.06,140.7-32.15,211.81-43.61,97-15.62,193.83-27.23,291.92-36.91,120.09-11.86,240.5-20.42,361-26.53q205.92-10.44,412.19-11.47,27.18-.15,54.35-.15c19.3,0,19.33-30,0-30q-210.12,0-420.1,9.39c-123.53,5.6-247,13.74-370.1,25.18C905.27,820.13,803,831.87,701.26,847.36c-74.82,11.39-149.64,24.5-223,43.24-25.72,6.57-51.34,13.84-76.31,22.93-17.88,6.51-36,13.7-52.21,23.87-2.77,1.74-5.47,3.6-8.07,5.6-6.4,4.94-9.84,12.89-5.38,20.52,3.68,6.3,14.07,10.37,20.52,5.38Z" transform="translate(-334.26 -466.28)"/><path class="cls-1" d="M642.48,735a77.89,77.89,0,0,0-16.23,9.82q-7.87,6.11-15.9,13.36t-16.66,15.31a164.36,164.36,0,0,1-18.63,15,222.65,222.65,0,0,1-21.79,13.24,166.92,166.92,0,0,1-26.06,11.06,203,203,0,0,1-31.44,7.56,236.94,236.94,0,0,1-38,2.8q-23.07,0-41.61-9.19a97.6,97.6,0,0,1-31.7-24.78,111.92,111.92,0,0,1-20.26-36.25,132.68,132.68,0,0,1-7.09-43.41,184.1,184.1,0,0,1,3.42-34,269.82,269.82,0,0,1,9.83-37A315.17,315.17,0,0,1,386,600.89a297.25,297.25,0,0,1,20.94-36A250.39,250.39,0,0,1,432.62,533a189.23,189.23,0,0,1,29.91-25.64A142.53,142.53,0,0,1,496,490.24a109.65,109.65,0,0,1,36.57-6.19,76.19,76.19,0,0,1,25,4.36,65.75,65.75,0,0,1,22.72,13.41,69.59,69.59,0,0,1,16.5,22.9q6.4,13.85,6.41,32.64a85.81,85.81,0,0,1-4,25.55,117,117,0,0,1-11,24.78A135.2,135.2,0,0,1,571.64,630a120.94,120.94,0,0,1-20.42,18,103.85,103.85,0,0,1-22.73,12,66.29,66.29,0,0,1-23.58,4.45q-15.56,0-23.24-4.19T474,648.28q0-1.37-.09-3.24c-.06-1.26-.08-2.57-.08-3.94a62.06,62.06,0,0,1,.34-6.4,24,24,0,0,1,1.36-6.07,10.84,10.84,0,0,1,3-4.44,7.94,7.94,0,0,1,5.39-1.71,9.86,9.86,0,0,1,3.59.6c1,.4,2.16.82,3.42,1.28a39.13,39.13,0,0,0,4.52,1.28,31.43,31.43,0,0,0,6.75.6,56.07,56.07,0,0,0,22.14-4.79A66,66,0,0,0,544.47,608a71.37,71.37,0,0,0,14.7-20.76,61.25,61.25,0,0,0,5.72-26.58,51,51,0,0,0-2-14.61,31.55,31.55,0,0,0-6.66-12.13,33.38,33.38,0,0,0-11.88-8.38q-7.26-3.15-17.69-3.16a56.48,56.48,0,0,0-24,5.43,96.48,96.48,0,0,0-22.47,14.74,143.3,143.3,0,0,0-20.42,22.06,242.07,242.07,0,0,0-17.86,27.32,286.69,286.69,0,0,0-14.79,30.34,308.52,308.52,0,0,0-11.19,31.45,260.49,260.49,0,0,0-7.09,30.43,164.76,164.76,0,0,0-2.48,27.15q0,18.22,4.36,31.77a62,62,0,0,0,12.39,22.57A49.43,49.43,0,0,0,442.7,779a73,73,0,0,0,26.15,4.42,116.86,116.86,0,0,0,33.75-4.69,159.1,159.1,0,0,0,29.82-12.3,243.32,243.32,0,0,0,27.43-17.17q13.24-9.56,26.49-19.2t27-18.41a168.21,168.21,0,0,1,29.14-14.78Z" transform="translate(-334.26 -466.28)"/><path class="cls-1" d="M725.37,658.54a91.56,91.56,0,0,1,7.43,20.93,113.93,113.93,0,0,1,2.48,24.87,95.8,95.8,0,0,1-2.22,20.33,104.56,104.56,0,0,1-6.41,19.83,96.28,96.28,0,0,1-10.25,17.94A72.81,72.81,0,0,1,702.55,777a65.45,65.45,0,0,1-17,9.74,53.81,53.81,0,0,1-19.65,3.59q-15,0-25.73-6.58a54.72,54.72,0,0,1-17.51-17.18,76.06,76.06,0,0,1-10-23.92,116.52,116.52,0,0,1-3.16-27q0-22.56,5.64-38.88a84.65,84.65,0,0,1,16.15-28.37,74.61,74.61,0,0,1,25.72-19q15.21-6.93,34.18-6.92a90.23,90.23,0,0,1,30.42,5A115.61,115.61,0,0,1,748.18,641a113.23,113.23,0,0,1,23.07,21.28q10.68,12.81,19.91,24.43l-3.24,24.1a100.11,100.11,0,0,0-12.48-13.33q-7.86-7.17-16.66-15.89a140,140,0,0,0-17.35-14.78q-8.55-6.08-14.7-10.17Zm-52.81,99q5.81,0,11.28-5.9a55.8,55.8,0,0,0,9.57-14.87A97.15,97.15,0,0,0,700,715a120.27,120.27,0,0,0,2.48-22.65,83.64,83.64,0,0,0-1.2-14.61,44.77,44.77,0,0,0-3.59-11.7,21.57,21.57,0,0,0-6.15-7.87,14.43,14.43,0,0,0-9.06-2.9q-7,0-13.33,6A56.23,56.23,0,0,0,658,676.57a93,93,0,0,0-7.52,20.59,108.55,108.55,0,0,0-2.73,25.46,63.32,63.32,0,0,0,1.37,13.51,34.67,34.67,0,0,0,4.27,11,21.42,21.42,0,0,0,19.14,10.34Z" transform="translate(-334.26 -466.28)"/><path class="cls-1" d="M805.7,790.3q-9.19,0-17.11-8t-13.8-21.45a144.66,144.66,0,0,1-9.19-31.2,202.63,202.63,0,0,1-3.32-37.26q0-16.77,4.93-44.77t4.93-28s2.49-9.32,7.46-28,10-33.6,15-44.86a290,290,0,0,1,16.31-31.57,171.17,171.17,0,0,1,18.47-25.58,85.25,85.25,0,0,1,20.19-17.14A41.56,41.56,0,0,1,871,466.28q7.92,0,13.07,3a22.4,22.4,0,0,1,8.09,8,34.39,34.39,0,0,1,4.15,11.23,68.67,68.67,0,0,1,1.19,12.78,147.56,147.56,0,0,1-3.82,32.91,249.72,249.72,0,0,1-10.3,33.68q-6.5,16.92-15,33.94t-17.77,33.77q-9.24,16.75-18.57,33t-17.21,31.75a38.18,38.18,0,0,0-1.8,4.48q-.94,2.76-1.8,5.94t-1.71,6.81q-.87,3.62-1.38,7.07V727a40.26,40.26,0,0,0,.94,8.7,47,47,0,0,0,2.32,7.59,22.87,22.87,0,0,0,2.91,5.34c1,1.32,2,2,2.92,2a25.21,25.21,0,0,0,7.61-1.38,71.15,71.15,0,0,0,9.1-3.7q4.82-2.33,9.89-5.34t9.8-6.12q11-7.25,23.1-16.72l15.09,36q-15.68,10.41-31,18.53-6.69,3.4-13.81,6.74t-14.35,5.93a116.66,116.66,0,0,1-14.08,4.15A58.54,58.54,0,0,1,805.7,790.3Zm.16-135.47q7.71-13.79,16.37-31t16.38-35.5Q846.32,570,852,551.85a171.14,171.14,0,0,0,7.2-33.86c0-3.33-.08-6.18-.24-8.53s-.68-3.54-1.54-3.54q-4.7,0-10.12,6.5A87.18,87.18,0,0,0,836.43,530q-5.43,11.09-13,36l-7.53,25s-1.54,7.72-4.6,23.16A286,286,0,0,0,805.86,654.83Z" transform="translate(-334.26 -466.28)"/><path class="cls-1" d="M897.64,790.3q-9.2,0-17.11-8t-13.79-21.45a144.64,144.64,0,0,1-9.2-31.2,202.64,202.64,0,0,1-3.31-37.26q0-16.77,4.92-44.77t4.93-28l7.47-28q7.46-28,15-44.86a291.77,291.77,0,0,1,16.31-31.57,171.88,171.88,0,0,1,18.47-25.58,85.48,85.48,0,0,1,20.2-17.14,41.52,41.52,0,0,1,21.4-6.23q7.92,0,13.07,3a22.51,22.51,0,0,1,8.1,8,34.61,34.61,0,0,1,4.14,11.23,67.83,67.83,0,0,1,1.2,12.78,147.58,147.58,0,0,1-3.83,32.91,248.29,248.29,0,0,1-10.3,33.68q-6.49,16.92-15,33.94T942.5,635.58q-9.24,16.75-18.57,33t-17.22,31.75a38.18,38.18,0,0,0-1.8,4.48q-.95,2.76-1.8,5.94t-1.71,6.81q-.85,3.62-1.37,7.07V727a39.65,39.65,0,0,0,.94,8.7,48,48,0,0,0,2.31,7.59,22.86,22.86,0,0,0,2.92,5.34q1.54,2,2.91,2a25.15,25.15,0,0,0,7.61-1.38,71.15,71.15,0,0,0,9.1-3.7q4.81-2.33,9.89-5.34t9.8-6.12q11-7.25,23.1-16.72l15.09,36q-15.66,10.41-31,18.53-6.69,3.4-13.82,6.74t-14.34,5.93a117.73,117.73,0,0,1-14.08,4.15A58.7,58.7,0,0,1,897.64,790.3Zm.16-135.47q7.73-13.79,16.38-31t16.37-35.5q7.71-18.27,13.37-36.46a171.14,171.14,0,0,0,7.2-33.86c0-3.33-.08-6.18-.24-8.53s-.67-3.54-1.54-3.54q-4.7,0-10.12,6.5A87.64,87.64,0,0,0,928.37,530q-5.42,11.09-13,36l-7.53,25s-1.53,7.72-4.6,23.16A287.47,287.47,0,0,0,897.8,654.83Z" transform="translate(-334.26 -466.28)"/><path class="cls-1" d="M1009,790.3q-15.94,0-27.92-5.92a57.93,57.93,0,0,1-19.95-15.91,68.69,68.69,0,0,1-12-23.14,94.27,94.27,0,0,1-4-27.57q0-9.45,3.57-22.51t7.4-23.2a107.58,107.58,0,0,1,9.6-19.31,76.76,76.76,0,0,1,13.51-16.19,62.61,62.61,0,0,1,17.34-11.14,53.57,53.57,0,0,1,21.34-4.13,50.6,50.6,0,0,1,17.79,3.07A43.67,43.67,0,0,1,1050,633a39.05,39.05,0,0,1,9.5,13.4,43.62,43.62,0,0,1,3.42,17.58q0,10.37-6.94,23.23a92.87,92.87,0,0,1-16.18,22.06,101.85,101.85,0,0,1-22,16.37,118.49,118.49,0,0,1-27.66,11.2,53.08,53.08,0,0,0,5.07,7.52,22.41,22.41,0,0,0,5.06,4.68,16.73,16.73,0,0,0,5.4,2.34,26.19,26.19,0,0,0,6.09.67,65.12,65.12,0,0,0,21.62-4,143.64,143.64,0,0,0,22.13-10,187.65,187.65,0,0,0,20.34-13.12A171.55,171.55,0,0,0,1092,711.41l22,22.39a227.63,227.63,0,0,1-32,28.34q-7.35,5.28-15.81,10.39a141.86,141.86,0,0,1-17.77,9.06,120.18,120.18,0,0,1-19.31,6.33A87.13,87.13,0,0,1,1009,790.3Zm-22.81-81.4a34.5,34.5,0,0,0,13.46-3.09,61,61,0,0,0,13.56-7.93,65,65,0,0,0,12.26-13q6-8.19,6-13.53,0-7.53-2.83-12.37t-6.95-4.85a26.36,26.36,0,0,0-21.36,9.61,35.81,35.81,0,0,0-5.66,9.69q-2.14,5.45-5,13.46a51.81,51.81,0,0,0-3.18,13.2Q986.16,705.23,986.16,708.9Z" transform="translate(-334.26 -466.28)"/><path class="cls-1" d="M1133.72,790.3q-15.83,0-27.78-5.81a59.41,59.41,0,0,1-20-15.55,67.22,67.22,0,0,1-12.21-22.56,86.21,86.21,0,0,1-4.13-26.66q0-9.91,3.43-23.76a197.11,197.11,0,0,1,7.48-24.18,116.31,116.31,0,0,1,10-19.74,79.21,79.21,0,0,1,13.74-16.49,63.48,63.48,0,0,1,17.44-11.28,52.44,52.44,0,0,1,21.13-4.19,59.25,59.25,0,0,1,19.19,3,45.91,45.91,0,0,1,15.09,8.28,38.47,38.47,0,0,1,9.82,12.56,35.26,35.26,0,0,1,3.54,15.64,40.2,40.2,0,0,1-1.66,11.45,55.32,55.32,0,0,1-6.48,13.25q-4.8,7.61-9.33,10.34a19.52,19.52,0,0,1-10.27,2.73q-8.64,0-11.16-4.27-4.14-6.67-2.61-11.79.51-2.74,3.06-12.65a29,29,0,0,0,.17-6.15,23.64,23.64,0,0,0-.85-6.84,3.57,3.57,0,0,0-3.74-2.73,20.79,20.79,0,0,0-11.91,3.33,30.15,30.15,0,0,0-8.43,8.72,72.06,72.06,0,0,0-6.89,15.21,148.94,148.94,0,0,0-4.85,16.49,81.35,81.35,0,0,0-1.78,12.73q-.35,6.06-.34,10.17a79.22,79.22,0,0,0,1.1,12.82,34.7,34.7,0,0,0,4.42,12.21,29.65,29.65,0,0,0,8.6,9.23q5.27,3.68,13.61,3.68t18.12-5a128.3,128.3,0,0,0,19.91-12.74,182.17,182.17,0,0,0,19-16.92,220.44,220.44,0,0,0,15.55-17.43l11.79,19.83a223.29,223.29,0,0,1-27.68,32.64,168.19,168.19,0,0,1-13.76,12,119.91,119.91,0,0,1-15.55,10.34,92.54,92.54,0,0,1-16.92,7.35A58.12,58.12,0,0,1,1133.72,790.3Z" transform="translate(-334.26 -466.28)"/><path class="cls-1" d="M1351.37,752q-16.42,9.57-29.26,16.75t-22.85,12a133.26,133.26,0,0,1-17.8,7.18,48.69,48.69,0,0,1-14.12,2.39,35.52,35.52,0,0,1-22.78-7.86q-9.86-7.86-16.48-22.65t-9.95-35.8a305.8,305.8,0,0,1-3.31-47.34q0-10.24.85-21.87t2.37-23.07q-5.16-.76-8-1.43c-1.89-.44-3.9-.89-6-1.33s-4.82-.92-8.09-1.43-8-1.14-14.19-1.9a14.2,14.2,0,0,1-6.37-2.19,10.13,10.13,0,0,1-3.27-3.8,13.06,13.06,0,0,1-1.2-4.57c-.11-1.58-.17-2.95-.17-4.09q0-2.7,3.35-4.11a34.22,34.22,0,0,1,8.59-2.13,97,97,0,0,1,11.51-.8q6.27-.07,12,.09t10.31.26a34.89,34.89,0,0,0,6.27-.26,382.33,382.33,0,0,1,11.69-44.56,252.81,252.81,0,0,1,15.86-38.34q8.79-16.78,19.19-26.93t21.84-10.14a23.52,23.52,0,0,1,13.43,4.1,35.93,35.93,0,0,1,10.34,10.93,55.51,55.51,0,0,1,6.59,16,77.8,77.8,0,0,1,2.31,19,68,68,0,0,1-2.4,17.31,129,129,0,0,1-6.5,18.56,193.09,193.09,0,0,1-9.66,19.14q-5.55,9.69-11.7,19.22a13,13,0,0,1,5.13-.22c2.39.24,5.16.4,8.29.49l10.17.27c3.64.09,7.18.19,10.6.31s6.6.23,9.57.34,5.41.23,7.35.34c2.27.13,3.93,1.4,4.95,3.81a23.31,23.31,0,0,1,1.54,9.13,15.45,15.45,0,0,1-3.42,10.39c-2.28,2.68-4.79,4-7.53,4h-65.7q-5,6.84-10,13.42t-9.36,11.88q-.67,10.59-1.19,20.85-.18,4.44-.34,9.14c-.12,3.13-.23,6.24-.35,9.31s-.2,6-.25,8.89-.09,5.47-.09,7.86a60,60,0,0,0,1.72,15.55,27.62,27.62,0,0,0,5,10.34,18.62,18.62,0,0,0,8,5.81,29.41,29.41,0,0,0,10.55,1.8,30.82,30.82,0,0,0,9-1.71,99.83,99.83,0,0,0,11.81-4.7q6.41-3,13.51-7.09t14-9q6.93-4.86,13.26-10.25a124.52,124.52,0,0,0,11.46-11ZM1296.68,535.6a38.12,38.12,0,0,0-.26-4.16,15.56,15.56,0,0,0-1.11-4.34,7.54,7.54,0,0,0-7.72-4.77q-4.47,0-9,7.81a114.44,114.44,0,0,0-8.75,19.93q-4.21,12.13-7.89,26.72t-6.78,28.34c1.72.17,3.43.31,5.15.44s3.48.28,5.32.44q5.14-8.61,10.72-18.65t10-19.76q4.47-9.71,7.38-18.15T1296.68,535.6Z" transform="translate(-334.26 -466.28)"/><path class="cls-1" d="M1442.12,753.9a154.18,154.18,0,0,1-15.3,12.05,163.93,163.93,0,0,1-19.74,11.79,150,150,0,0,1-21.62,9,67.75,67.75,0,0,1-20.93,3.59,39.64,39.64,0,0,1-15-2.48,24.88,24.88,0,0,1-9.83-6.92,26.7,26.7,0,0,1-5.39-10.85,57.47,57.47,0,0,1-1.62-14.1,155.84,155.84,0,0,1,2.39-25.12q4.93-29.7,6.34-33.36,2.33-7.31,9.31-32.34,6.49-20.42,8-26.58a14,14,0,0,1,4.71-7.77,31.35,31.35,0,0,1,8-5.1,44,44,0,0,1,9.24-2.94,45,45,0,0,1,8.64-1c4.7,0,7.9.89,9.57,2.65a9.87,9.87,0,0,1,2.52,7.09,46.3,46.3,0,0,1-1.75,10.63q-1.76,6.87-4,15.65T1389,680.39a172.7,172.7,0,0,0-6,23.54q-1.62,9.74-4.07,19.35a71.05,71.05,0,0,0-2.46,17.47q0,7.68,1.71,12.21c1.14,3,3.47,4.53,7,4.53q6.15,0,13.67-4.28a121.84,121.84,0,0,0,15.21-10.33q7.7-6.07,15-12.57t13-11.1Zm-76.4-179.35a29.15,29.15,0,0,1,7.27-18.37,30.93,30.93,0,0,1,10.25-7.42q6.4-3,16-3a45,45,0,0,1,11.28,1.38,27.66,27.66,0,0,1,9.23,4.23,20.15,20.15,0,0,1,6.24,7.5,24.75,24.75,0,0,1,2.3,11,34.88,34.88,0,0,1-1.88,11.39,26.37,26.37,0,0,1-6,9.83,30.61,30.61,0,0,1-10.34,7,37.87,37.87,0,0,1-15,2.67q-15,0-22.22-7.16T1365.72,574.55Z" transform="translate(-334.26 -466.28)"/><path class="cls-1" d="M1535.08,658.54a91.11,91.11,0,0,1,7.44,20.93,113.93,113.93,0,0,1,2.48,24.87,96.45,96.45,0,0,1-2.22,20.33,105.28,105.28,0,0,1-6.41,19.83,96.33,96.33,0,0,1-10.26,17.94A72.77,72.77,0,0,1,1512.27,777a65.62,65.62,0,0,1-17,9.74,53.86,53.86,0,0,1-19.66,3.59q-15,0-25.72-6.58a54.72,54.72,0,0,1-17.51-17.18,75.82,75.82,0,0,1-10-23.92,116.52,116.52,0,0,1-3.16-27q0-22.56,5.64-38.88A84.8,84.8,0,0,1,1441,648.37a74.65,74.65,0,0,1,25.73-19q15.19-6.93,34.18-6.92a90.23,90.23,0,0,1,30.42,5A115.61,115.61,0,0,1,1557.9,641,113.23,113.23,0,0,1,1581,662.3q10.68,12.81,19.91,24.43l-3.25,24.1a99.31,99.31,0,0,0-12.47-13.33q-7.86-7.17-16.66-15.89a140.68,140.68,0,0,0-17.35-14.78q-8.55-6.08-14.7-10.17Zm-52.8,99q5.81,0,11.28-5.9a56.05,56.05,0,0,0,9.57-14.87,97.67,97.67,0,0,0,6.58-21.7,120.19,120.19,0,0,0,2.47-22.65,84.66,84.66,0,0,0-1.19-14.61,45.16,45.16,0,0,0-3.59-11.7,21.67,21.67,0,0,0-6.15-7.87,14.43,14.43,0,0,0-9.06-2.9q-7,0-13.33,6a56,56,0,0,0-11.11,15.3,92.51,92.51,0,0,0-7.52,20.59,108.55,108.55,0,0,0-2.73,25.46,64,64,0,0,0,1.36,13.51,34.68,34.68,0,0,0,4.28,11,21.42,21.42,0,0,0,19.14,10.34Z" transform="translate(-334.26 -466.28)"/><path class="cls-1" d="M1577.47,754.58q0-11.28,1.36-26.06t3.42-32.47q2.05-17.68,4.62-31.87t5-24.27a26.82,26.82,0,0,1,7.27-13.16q5.37-5.29,14.61-5.3t12.82,5.64q3.59,5.64,3.58,15a62.74,62.74,0,0,1-.51,6.92q-.51,4.37-1.28,9.57c-.51,3.48-1.06,7.07-1.62,10.77s-1.11,7.92-1.63,12.65-.94,8.26-1.28,10.59a40.7,40.7,0,0,0-.51,4.7h3.42q1-1.87,3.24-6.07a104.32,104.32,0,0,0,5.13-12,104,104,0,0,1,6.24-13.93q3.33-6.07,6.24-11.62t5.29-9.83c1.6-2.85,2.79-5,3.59-6.32q5.47-9.24,12.48-12.65a35,35,0,0,1,15.55-3.42,15.79,15.79,0,0,1,13.59,7.18q5,7.17,5,19.82a43.19,43.19,0,0,1-.77,6.33q-.76,4.44-2,10.59t-2.65,15.9q-1.44,9.74-2.64,17.43c-.8,5.12-1.46,10.2-2,15.21a137.61,137.61,0,0,0-.77,13.84q0,10.61,2.65,17.43t8.29,6.84a16.76,16.76,0,0,0,5.81-1.54c3.76-1.37,6.15-2.56,7.18-3.59q7.52-5.8,7.86-5.64.51.18,11.45-6.83,13.67-8.71,32.64-21.37l-.17,38.28-8.55,6.5q-1,.85-16.06,8.89-21.71,11.61-27.17,14-13.34,6-16.58,6.84a58.62,58.62,0,0,1-17.94,2.73q-9.4,0-15.81-13.59T1659.5,737a192.32,192.32,0,0,1,1.37-22.13q1.37-11.88,3.41-25.55h-2.73l-44.78,88.87q-3.58,7.17-7.69,9.57a18.88,18.88,0,0,1-9.91,2.56q-7,0-11.28-3a19.44,19.44,0,0,1-6.58-8,38.24,38.24,0,0,1-3.07-11.45A109.76,109.76,0,0,1,1577.47,754.58Z" transform="translate(-334.26 -466.28)"/></svg>